<svg xmlns="http://www.w3.org/2000/svg" version="1.1" xmlns:xlink="http://www.w3.org/1999/xlink" xmlns:svgjs="http://svgjs.dev/svgjs" width="1920" height="1080" preserveAspectRatio="none" viewBox="0 0 1920 1080"><g mask="url(&quot;#SvgjsMask1059&quot;)" fill="none"><path d="M1382.022,867.637C1433.425,863.796,1469.17,823.196,1496.009,779.188C1524.445,732.561,1553.936,677.18,1527.227,629.543C1500.18,581.303,1437.19,572.001,1382.022,575.887C1334.104,579.262,1294.953,607.748,1268.394,647.775C1237.813,693.863,1208.748,749.618,1234.143,798.755C1260.902,850.531,1323.902,871.98,1382.022,867.637" fill="rgba(28, 83, 142, 0.4)" class="triangle-float3"></path><path d="M1633.143026806711 465.36828516557637L1510.171158694762 234.09183831435502 1278.8947118435406 357.0637064263042 1401.8665799554897 588.3401532775256z" fill="rgba(28, 83, 142, 0.4)" class="triangle-float1"></path><path d="M509.492,875.453C544.071,873.418,563.824,839.061,579.123,807.984C592.232,781.356,596.013,751.963,583.546,725.028C568.511,692.544,545.205,659.968,509.492,657.541C470.534,654.893,434.109,679.195,415.678,713.619C398.169,746.321,405.455,785.016,424.058,817.108C442.595,849.085,472.595,877.624,509.492,875.453" fill="rgba(28, 83, 142, 0.4)" class="triangle-float3"></path><path d="M1428.906,488.448C1492.707,487.568,1547.217,449.435,1581.477,395.606C1618.965,336.705,1646.683,262.397,1610.95,202.415C1575.731,143.297,1497.606,135.559,1428.906,139.5C1368.216,142.982,1311.597,169.622,1279.768,221.414C1246.315,275.848,1237.711,344.136,1268.865,399.918C1300.726,456.966,1363.57,489.349,1428.906,488.448" fill="rgba(28, 83, 142, 0.4)" class="triangle-float3"></path><path d="M1620.2173114659163 588.450851827857L1632.2624585085064 358.6157546844073 1402.4273613650566 346.5706076418171 1390.3822143224666 576.4057047852668z" fill="rgba(28, 83, 142, 0.4)" class="triangle-float3"></path><path d="M1951.4680064078439 492.10555369900953L1744.1659620601802 455.5526101244937 1792.9875688722382 784.7821484332469z" fill="rgba(28, 83, 142, 0.4)" class="triangle-float1"></path><path d="M319.34 891.89 a305.61 305.61 0 1 0 611.22 0 a305.61 305.61 0 1 0 -611.22 0z" fill="rgba(28, 83, 142, 0.4)" class="triangle-float3"></path><path d="M1729.705,544.186C1761.782,541.87,1785.154,517.172,1800.938,489.152C1816.358,461.778,1824.039,429.775,1809.982,401.677C1794.435,370.6,1764.45,347.263,1729.705,346.763C1694.195,346.252,1663.464,368.776,1645.322,399.307C1626.733,430.591,1619.794,469.463,1638.109,500.908C1656.325,532.183,1693.606,546.792,1729.705,544.186" fill="rgba(28, 83, 142, 0.4)" class="triangle-float1"></path><path d="M1406.3512878422202 425.6121278894056L1429.1240960664027 569.3939803082417 1633.4104705825657 463.34384176254997z" fill="rgba(28, 83, 142, 0.4)" class="triangle-float3"></path><path d="M295.7043152808545 754.9974997704676L372.13616921083104 591.0888600702569 88.05728269552696 558.3953990253974z" fill="rgba(28, 83, 142, 0.4)" class="triangle-float1"></path><path d="M1835.0811098318622 464.8389739886221L1584.619700976514 358.2425965401837 1609.4919351762042 594.8860975068153z" fill="rgba(28, 83, 142, 0.4)" class="triangle-float3"></path><path d="M985.0753250209964 741.0569883462055L934.6408721220076 859.8731135273147 1138.0822863431658 876.1167302852431z" fill="rgba(28, 83, 142, 0.4)" class="triangle-float2"></path><path d="M1736.756620244214 606.7681396110306L1819.2050640951195 463.9632458562724 1676.4001703403615 381.51480200536685 1593.9517264894557 524.319695760125z" fill="rgba(28, 83, 142, 0.4)" class="triangle-float2"></path></g><defs><mask id="SvgjsMask1059"><rect width="1920" height="1080" fill="#ffffff"></rect></mask><style>
                @keyframes float1 {
                    0%{transform: translate(0, 0)}
                    50%{transform: translate(-10px, 0)}
                    100%{transform: translate(0, 0)}
                }

                .triangle-float1 {
                    animation: float1 5s infinite;
                }

                @keyframes float2 {
                    0%{transform: translate(0, 0)}
                    50%{transform: translate(-5px, -5px)}
                    100%{transform: translate(0, 0)}
                }

                .triangle-float2 {
                    animation: float2 4s infinite;
                }

                @keyframes float3 {
                    0%{transform: translate(0, 0)}
                    50%{transform: translate(0, -10px)}
                    100%{transform: translate(0, 0)}
                }

                .triangle-float3 {
                    animation: float3 6s infinite;
                }
            </style></defs></svg>